<svg aria-hidden="true" style="position: absolute; width: 0; height: 0; overflow: hidden;" version="1.1" xmlns="http://www.w3.org/2000/svg" xmlns:xlink="http://www.w3.org/1999/xlink">
<defs>
<symbol id="icon-soccer" viewBox="0 0 32 32">
<title>soccer</title>
<path d="M28.789 10.153c-0.006-0.015-0.014-0.030-0.021-0.046l0.029 0.005-0.008 0.041zM25.25 22.217l-4.668 0.194-2.438-4.285 2.523-4.556 4.887 0.162 2.086 4.259-2.39 4.226zM12.708 18.065l-2.449-4.431 2.56-4.271 5.221-0.080 2.564 4.253-2.52 4.547-5.376-0.018zM12.816 9.29l-1.93-3.323 2.564-3.128 4.475-0.143 2.385 2.954-2.283 3.56-5.211 0.080zM10.374 22.249l-4.135-0.404-1.992-3.983 1.738-4.038 4.205-0.161 2.45 4.433-2.266 4.153zM24.811 6.159l0.396-0.787c1.5 1.301 2.717 2.912 3.561 4.735l-1.482-0.236-2.475-3.712zM20.385 5.625l-2.389-2.957c0.059-0.072 0.377-0.459 0.383-0.465-2.141-0.358-4.094-0.175-5.381 0.127 0.009 0.006 0.319 0.398 0.383 0.479l-2.565 3.128-3.825 0.644-0.341-1.043-0.059 0.018c2.494-2.248 5.786-3.629 9.409-3.629 3.498 0 6.689 1.283 9.15 3.395l-0.404 0.804-4.361-0.501zM4.639 10.222l-1.608 0.379 0.018 0.070 1.58-0.372 1.3 3.472-1.744 4.053c-0.236-0.023-2.061-0.198-2.061-0.087 0.32 2.685 1.339 5.021 3.094 7.206l1.030-3.023 4.128 0.403 2.607 3.956-1.8 2.931c-5.395-1.971-9.256-7.133-9.256-13.21 0-4.146 1.803-7.86 4.655-10.436l0.346 1.062-2.289 3.596zM17.859 26.435l2.146 3.005 0.061-0.043-2.133-2.983 2.65-3.93 4.664-0.193c0.094 0.211 1.289 2.898 1.281 2.898 1.967-2.303 2.955-4.611 3.312-7.242-0.004 0-1.914 0.008-2.139 0.010l-2.088-4.268 1.684-3.741 1.486 0.237 0.004-0.031c0.816 1.782 1.283 3.758 1.283 5.847 0 7.772-6.301 14.073-14.072 14.073-1.669 0-3.262-0.306-4.747-0.839l1.797-2.925 4.811 0.125zM11.234 29.267l-0.062-0.038 0.012-0.020c0.023 0.009 0.047 0.017 0.070 0.025l-0.020 0.033zM6.581 5.56l0.011-0.004c-0.004 0.003-0.007 0.006-0.009 0.008l-0.002-0.004zM25.164 5.295l0.064 0.032-0.021 0.045c-0.020-0.017-0.037-0.034-0.057-0.051l0.014-0.026z"></path>
</symbol>
<symbol id="icon-home" viewBox="0 0 24 24">
<title>home</title>
<path d="M12 3c0 0-6.186 5.34-9.643 8.232-0.203 0.184-0.357 0.452-0.357 0.768 0 0.553 0.447 1 1 1h2v7c0 0.553 0.447 1 1 1h3c0.553 0 1-0.448 1-1v-4h4v4c0 0.552 0.447 1 1 1h3c0.553 0 1-0.447 1-1v-7h2c0.553 0 1-0.447 1-1 0-0.316-0.154-0.584-0.383-0.768-3.433-2.892-9.617-8.232-9.617-8.232z"></path>
</symbol>
<symbol id="icon-add" viewBox="0 0 24 24">
<title>add</title>
<path d="M18.984 12.984h-6v6h-1.969v-6h-6v-1.969h6v-6h1.969v6h6v1.969z"></path>
</symbol>
<symbol id="icon-add_circle_outlinecontrol_point" viewBox="0 0 24 24">
<title>add_circle_outlinecontrol_point</title>
<path d="M12 20.016q3.281 0 5.648-2.367t2.367-5.648-2.367-5.648-5.648-2.367-5.648 2.367-2.367 5.648 2.367 5.648 5.648 2.367zM12 2.016q4.125 0 7.055 2.93t2.93 7.055-2.93 7.055-7.055 2.93-7.055-2.93-2.93-7.055 2.93-7.055 7.055-2.93zM12.984 6.984v4.031h4.031v1.969h-4.031v4.031h-1.969v-4.031h-4.031v-1.969h4.031v-4.031h1.969z"></path>
</symbol>
<symbol id="icon-menu" viewBox="0 0 24 24">
<title>menu</title>
<path d="M3 6h18v2.016h-18v-2.016zM3 12.984v-1.969h18v1.969h-18zM3 18v-2.016h18v2.016h-18z"></path>
</symbol>
<symbol id="icon-trash" viewBox="0 0 20 20">
<title>trash</title>
<path d="M3.389 7.113l1.101 10.908c0.061 0.461 2.287 1.977 5.51 1.979 3.225-0.002 5.451-1.518 5.511-1.979l1.102-10.908c-1.684 0.942-4.201 1.387-6.613 1.387-2.41 0-4.928-0.445-6.611-1.387zM13.168 1.51l-0.859-0.951c-0.332-0.473-0.692-0.559-1.393-0.559h-1.831c-0.7 0-1.061 0.086-1.392 0.559l-0.859 0.951c-2.57 0.449-4.434 1.64-4.434 2.519v0.17c0 1.547 3.403 2.801 7.6 2.801 4.198 0 7.601-1.254 7.601-2.801v-0.17c0-0.879-1.863-2.070-4.433-2.519zM12.070 4.34l-1.070-1.34h-2l-1.068 1.34h-1.7c0 0 1.862-2.221 2.111-2.522 0.19-0.23 0.384-0.318 0.636-0.318h2.043c0.253 0 0.447 0.088 0.637 0.318 0.248 0.301 2.111 2.522 2.111 2.522h-1.7z"></path>
</symbol>
<symbol id="icon-pencil" viewBox="0 0 20 20">
<title>pencil</title>
<path d="M14.69 2.661c-1.894-1.379-3.242-1.349-3.754-1.266-0.144 0.023-0.265 0.106-0.35 0.223l-6.883 9.497c-0.277 0.382-0.437 0.836-0.462 1.307l-0.296 5.624c-0.021 0.405 0.382 0.698 0.76 0.553l5.256-2.010c0.443-0.17 0.828-0.465 1.106-0.849l6.88-9.494c0.089-0.123 0.125-0.273 0.1-0.423-0.084-0.526-0.487-1.802-2.357-3.162zM8.977 15.465l-2.043 0.789c-0.080 0.031-0.169 0.006-0.221-0.062-0.263-0.335-0.576-0.667-1.075-1.030-0.499-0.362-0.911-0.558-1.31-0.706-0.080-0.030-0.131-0.106-0.126-0.192l0.122-2.186 0.549-0.755c0 0 1.229-0.169 2.833 0.998 1.602 1.166 1.821 2.388 1.821 2.388l-0.55 0.756z"></path>
</symbol>
<symbol id="icon-retweet" viewBox="0 0 32 32">
<title>retweet</title>
<path d="M8.013 22.033v-7.972h3.932l-5.902-6.892-6.026 6.893h3.947v11.896h17.468l-3.923-3.924h-9.496zM28.036 19.001v-11.958h-17.531l3.986 3.985h9.496v7.973h-3.932l5.901 6.893 6.026-6.893h-3.946z"></path>
</symbol>
</defs>
</svg>
